<svg version="1.1" xmlns="http://www.w3.org/2000/svg" xmlns:xlink="http://www.w3.org/1999/xlink" x="0px" y="0px" viewBox="0 0 750 500" style="enable-background:new 0 0 750 500;" xml:space="preserve">
<g id="BACKGROUND">
	<rect style="fill:#FFFFFF;" width="750" height="500"></rect>
</g>
<g id="OBJECTS">
	<g>
		<g>
			<ellipse style="fill:#DFEFF4;" cx="188.45" cy="472.751" rx="87.374" ry="6.529"></ellipse>
			<ellipse style="fill:#DFEFF4;" cx="584.233" cy="476.472" rx="87.374" ry="6.529"></ellipse>
		</g>
		<g>
			<g>
				<path style="fill: rgb(223, 239, 244); opacity: 1;" d="M648.856,350.547c0,0,40.073-0.877,48.063-40.982
					C656.056,311.115,648.856,350.547,648.856,350.547z" data-index="0"></path>
				<path style="fill:#DFEFF4;" d="M109.531,320.431c-40.864,1.551-48.063,40.982-48.063,40.982S101.541,360.536,109.531,320.431z" data-index="1"></path>
				<path style="fill: rgb(223, 239, 244); opacity: 1;" d="M629.542,127.097c-9.541-39.764-49.619-39.084-49.619-39.084S588.649,127.135,629.542,127.097z" data-index="2"></path>
				<path style="fill: rgb(121, 40, 202); opacity: 1; visibility: visible;" d="M650.393,376.249C612.746,350.333,637,310,681.105,272.285
					c44.106-37.715-6.667-153.449-37.187-135.573c-30.52,17.875-73.918-6.638-179.283-82.163S271,44,246.597,84.811
					S154,110,131.971,169.797S161,245.596,187.458,280.258c26.458,34.663-10.46,100.722-67.773,91.716S42,453.931,42,453.931
					h360.398L718,453.073C718,414.147,688.039,402.164,650.393,376.249z" data-index="3"></path>
			</g>
		</g>
		<g>
			<path style="fill: rgb(237, 245, 247); opacity: 1; visibility: visible;" d="M464.636,75.658h156.238c0,0-34.239-62.839-83.953-25.035c0,0-27.985-20.205-45.182,6.467
				C491.739,57.089,464.636,54.889,464.636,75.658z" data-index="4"></path>
			<path style="fill:#EDF5F7;" d="M59.712,103.38h156.238c0,0-34.239-62.84-83.953-25.035c0,0-27.985-20.205-45.182,6.466
				C86.814,84.811,59.712,82.61,59.712,103.38z" data-index="5"></path>
		</g>
		<g>
			<g>
				<g>
					<path style="fill: rgb(114, 206, 188); opacity: 1;" d="M467.055,405.944c0,0,23.239-44.016,48.28-46.841c25.041-2.825,27.004,15.911,44.979,4.98
						c17.974-10.931,34.467-17.918,51.622-13.276c17.155,4.642,24.562,16.211,48.383,18.751c23.82,2.54,41.364,13.747,42.042,30.061
						c0.678,16.314-25.603,29.207-39.195,21.562c-13.592-7.645-21.317,14.334-46.038,14.897
						c-24.721,0.563-27.184-15.29-45.539-8.843C553.235,433.683,536.318,488.245,467.055,405.944z" data-index="6"></path>
					<path style="fill: rgb(141, 219, 195); opacity: 1;" d="M684.419,413.832c-9.17-14.705-18.771-21.501-25.402-24.639
						c12.749,2.147,24.527,5.53,34.627,10.529c0.339,0.167,0.751,0.029,0.919-0.311c0.168-0.34,0.022-0.754-0.311-0.919
						c-12.05-5.964-26.45-9.661-42.041-11.693c-0.943-0.202-1.523-0.262-1.643-0.272c-0.101-0.009-0.197,0.008-0.286,0.04
						c-11.423-1.381-23.448-1.895-35.637-1.768c4.51-3.099,15.384-12.051,12.297-24.602c-0.089-0.367-0.46-0.59-0.828-0.502
						c-0.368,0.09-0.593,0.462-0.502,0.829c3.594,14.616-13.334,24.179-13.505,24.273c-0.015,0.009-0.024,0.023-0.038,0.033
						c-12.372,0.218-24.873,1.076-37.044,2.329c-0.28-0.04-0.438-0.058-0.46-0.06c-0.195-0.02-0.377,0.046-0.515,0.164
						c-14.615,1.532-28.729,3.625-41.537,5.866c4.77-3.318,14.578-11.279,18.738-23.023c0.126-0.356-0.059-0.747-0.418-0.875
						c-0.357-0.126-0.748,0.061-0.875,0.418c-5.395,15.234-20.661,23.94-20.815,24.025c-0.03,0.017-0.049,0.045-0.076,0.066
						c-11.998,2.161-22.723,4.417-31.5,6.407c-0.164-0.022-0.32,0.021-0.451,0.102c-14.453,3.287-23.486,5.82-23.85,5.923
						c-0.363,0.105-0.575,0.483-0.471,0.848c0.046,0.162,0.148,0.294,0.278,0.381c0.161,0.108,0.367,0.148,0.57,0.09
						c0.284-0.081,5.893-1.655,15.255-3.912c0.017,0.014,0.022,0.037,0.04,0.05c0.069,0.046,0.147,0.081,0.233,0.1
						c0.384,0.085,38.495,8.818,51.251,34.291c0.167,0.339,0.581,0.475,0.919,0.307c0.339-0.169,0.477-0.581,0.307-0.919
						c-11.283-22.535-41.755-32.209-50.054-34.472c1.879-0.445,3.887-0.911,6.009-1.393c2.916,0.515,34.646,6.731,46.229,33.788
						c0.054,0.126,0.142,0.229,0.248,0.3c0.186,0.124,0.429,0.155,0.651,0.061c0.348-0.149,0.509-0.551,0.361-0.899
						c-10.161-23.737-35.368-31.803-44.302-33.966c18.823-4.187,45.556-9.334,74.14-12.294c4.302,0.62,35.193,6.108,51.444,36.969
						c0.055,0.105,0.133,0.189,0.225,0.251c0.202,0.136,0.47,0.159,0.7,0.037c0.336-0.176,0.464-0.591,0.288-0.925
						c-13.687-25.999-37.569-34.327-47.953-36.798c24.121-2.273,49.297-2.885,71.95,0.023c4.065,0.852,18.451,5.265,31.675,26.471
						c0.052,0.085,0.121,0.154,0.2,0.206c0.217,0.145,0.508,0.16,0.744,0.012C684.521,414.576,684.619,414.154,684.419,413.832z" data-index="7"></path>
				</g>
				<g>
					<path style="fill: rgb(145, 232, 216); opacity: 1;" d="M438.332,440.114c0,0-6.581-62.689,17.771-83.313c24.352-20.624,39.626-2.298,50.829-26.469
						c11.203-24.171,23.629-43.148,44.949-50.358c21.32-7.21,37.268-0.26,64.118-14.381c26.85-14.12,53.207-14.697,65.421,1.987
						c12.214,16.684-6.345,48.775-26.034,50.314c-19.689,1.539-12.321,30.107-37.931,48.126c-25.61,18.019-39.378,3.078-54.142,22.8
						C548.548,408.543,569.215,477.868,438.332,440.114z" data-index="8"></path>
					<path style="fill: rgb(255, 255, 255); opacity: 1;" d="M672.563,295.182c-20.013-9.005-34.905-9.387-44.093-8.013
						c14.926-6.729,29.702-11.472,43.85-13.334c0.475-0.063,0.81-0.498,0.747-0.975c-0.063-0.476-0.508-0.809-0.975-0.747
						c-16.881,2.221-34.636,8.483-52.471,17.336c-1.135,0.452-1.787,0.799-1.92,0.873c-0.112,0.062-0.201,0.147-0.272,0.243
						c-12.991,6.6-26.003,14.536-38.738,23.262c2.56-6.44,7.689-23.523-4.407-34.551c-0.353-0.324-0.9-0.297-1.226,0.056
						c-0.324,0.354-0.298,0.904,0.056,1.226c14.085,12.842,3.017,34.836,2.904,35.057c-0.01,0.02-0.009,0.041-0.017,0.061
						c-12.862,8.951-25.409,18.666-37.33,28.564c-0.323,0.156-0.502,0.248-0.527,0.261c-0.219,0.117-0.365,0.314-0.427,0.535
						c-14.295,11.914-27.668,24.066-39.563,35.452c2.679-6.853,7.385-22.142,3.482-37.43c-0.119-0.463-0.588-0.744-1.056-0.625
						c-0.465,0.119-0.744,0.592-0.626,1.056c5.063,19.829-4.86,39.751-4.962,39.949c-0.02,0.039-0.02,0.082-0.034,0.123
						c-11.098,10.732-20.791,20.666-28.622,28.947c-0.188,0.093-0.322,0.247-0.402,0.426
						c-12.888,13.647-20.606,22.679-20.915,23.044c-0.309,0.366-0.264,0.914,0.102,1.224c0.163,0.137,0.363,0.205,0.561,0.205
						c0.246,0,0.49-0.103,0.663-0.307c0.242-0.285,5.033-5.895,13.29-14.87c0.028,0.003,0.05,0.024,0.078,0.024
						c0.105,0,0.212-0.019,0.316-0.059c0.464-0.181,46.714-17.86,78.09-0.054c0.415,0.239,0.946,0.09,1.183-0.325
						c0.237-0.417,0.091-0.948-0.325-1.183c-27.756-15.753-66.633-4.449-76.958-0.98c1.663-1.793,3.447-3.699,5.34-5.702
						c3.431-1.515,41.193-17.342,72.452,2.956c0.146,0.095,0.31,0.141,0.473,0.141c0.283,0,0.561-0.139,0.727-0.395
						c0.261-0.402,0.148-0.939-0.254-1.2c-27.423-17.809-59.627-8.524-70.551-4.502c16.85-17.674,41.346-41.934,69.33-65.199
						c4.963-2.38,41.329-18.384,80.181,2.627c0.132,0.071,0.273,0.105,0.414,0.105c0.308,0,0.607-0.165,0.763-0.454
						c0.229-0.422,0.071-0.949-0.349-1.176c-32.728-17.703-63.722-9.629-76.388-4.908c23.773-19.396,49.828-37.787,75.709-50.697
						c4.877-1.97,23.123-7.468,51.983,5.519c0.115,0.052,0.236,0.076,0.356,0.076c0.331,0,0.648-0.19,0.792-0.512
						C673.195,295.892,673,295.379,672.563,295.182z" data-index="9"></path>
				</g>
			</g>
			<g>
				<g>
					<path style="fill:#72CEBC;" d="M295.031,405.944c0,0-23.239-44.016-48.28-46.841c-25.041-2.825-27.004,15.911-44.979,4.98
						c-17.974-10.931-34.467-17.918-51.622-13.276c-17.155,4.642-24.562,16.211-48.383,18.751
						c-23.82,2.54-41.364,13.747-42.042,30.061c-0.678,16.314,25.603,29.207,39.195,21.562
						c13.592-7.645,21.317,14.334,46.037,14.897c24.721,0.563,27.184-15.29,45.539-8.843
						C208.851,433.683,225.768,488.245,295.031,405.944z" data-index="10"></path>
					<path style="fill:#8DDBC3;" d="M77.667,413.832c9.17-14.705,18.771-21.501,25.402-24.639
						c-12.749,2.147-24.527,5.53-34.627,10.529c-0.339,0.167-0.751,0.029-0.919-0.311c-0.168-0.34-0.022-0.754,0.311-0.919
						c12.05-5.964,26.45-9.661,42.041-11.693c0.943-0.202,1.523-0.262,1.643-0.272c0.101-0.009,0.197,0.008,0.286,0.04
						c11.423-1.381,23.447-1.895,35.637-1.768c-4.51-3.099-15.384-12.051-12.297-24.602c0.089-0.367,0.46-0.59,0.828-0.502
						c0.368,0.09,0.593,0.462,0.502,0.829c-3.594,14.616,13.334,24.179,13.505,24.273c0.015,0.009,0.024,0.023,0.038,0.033
						c12.372,0.218,24.873,1.076,37.044,2.329c0.28-0.04,0.438-0.058,0.46-0.06c0.195-0.02,0.377,0.046,0.515,0.164
						c14.615,1.532,28.729,3.625,41.537,5.866c-4.77-3.318-14.578-11.279-18.738-23.023c-0.126-0.356,0.059-0.747,0.418-0.875
						c0.357-0.126,0.748,0.061,0.875,0.418c5.395,15.234,20.661,23.94,20.815,24.025c0.03,0.017,0.049,0.045,0.076,0.066
						c11.998,2.161,22.723,4.417,31.5,6.407c0.164-0.022,0.32,0.021,0.451,0.102c14.453,3.287,23.486,5.82,23.849,5.923
						c0.363,0.105,0.575,0.483,0.471,0.848c-0.046,0.162-0.148,0.294-0.278,0.381c-0.161,0.108-0.367,0.148-0.57,0.09
						c-0.284-0.081-5.893-1.655-15.254-3.912c-0.017,0.014-0.022,0.037-0.04,0.05c-0.069,0.046-0.147,0.081-0.233,0.1
						c-0.384,0.085-38.495,8.818-51.251,34.291c-0.167,0.339-0.581,0.475-0.919,0.307c-0.339-0.169-0.477-0.581-0.307-0.919
						c11.283-22.535,41.755-32.209,50.054-34.472c-1.879-0.445-3.887-0.911-6.01-1.393c-2.916,0.515-34.646,6.731-46.229,33.788
						c-0.054,0.126-0.142,0.229-0.248,0.3c-0.186,0.124-0.429,0.155-0.651,0.061c-0.348-0.149-0.51-0.551-0.361-0.899
						c10.161-23.737,35.368-31.803,44.302-33.966c-18.823-4.187-45.556-9.334-74.14-12.294c-4.302,0.62-35.193,6.108-51.444,36.969
						c-0.055,0.105-0.133,0.189-0.225,0.251c-0.202,0.136-0.47,0.159-0.7,0.037c-0.335-0.176-0.464-0.591-0.288-0.925
						c13.687-25.999,37.569-34.327,47.953-36.798c-24.121-2.273-49.297-2.885-71.95,0.023c-4.065,0.852-18.451,5.265-31.675,26.471
						c-0.052,0.085-0.121,0.154-0.2,0.206c-0.217,0.145-0.508,0.16-0.744,0.012C77.565,414.576,77.467,414.154,77.667,413.832z" data-index="11"></path>
				</g>
				<g>
					<path style="fill: rgb(145, 232, 216); opacity: 1;" d="M323.754,440.114c0,0,6.581-62.689-17.771-83.313c-24.352-20.624-39.625-2.298-50.829-26.469
						c-11.204-24.171-23.629-43.148-44.949-50.358c-21.32-7.21-37.268-0.26-64.118-14.381c-26.85-14.12-53.207-14.697-65.421,1.987
						c-12.214,16.684,6.345,48.775,26.034,50.314c19.689,1.539,12.321,30.107,37.931,48.126c25.61,18.019,39.378,3.078,54.142,22.8
						C213.538,408.543,192.871,477.868,323.754,440.114z" data-index="12"></path>
					<path style="fill: rgb(255, 255, 255); opacity: 1;" d="M89.523,295.182c20.013-9.005,34.905-9.387,44.093-8.013
						c-14.926-6.729-29.702-11.472-43.85-13.334c-0.475-0.063-0.81-0.498-0.748-0.975c0.063-0.476,0.509-0.809,0.975-0.747
						c16.881,2.221,34.636,8.483,52.471,17.336c1.135,0.452,1.787,0.799,1.92,0.873c0.112,0.062,0.201,0.147,0.272,0.243
						c12.991,6.6,26.003,14.536,38.738,23.262c-2.56-6.44-7.689-23.523,4.407-34.551c0.353-0.324,0.9-0.297,1.225,0.056
						c0.324,0.354,0.298,0.904-0.056,1.226c-14.085,12.842-3.017,34.836-2.904,35.057c0.01,0.02,0.009,0.041,0.017,0.061
						c12.861,8.951,25.409,18.666,37.33,28.564c0.323,0.156,0.502,0.248,0.527,0.261c0.219,0.117,0.365,0.314,0.427,0.535
						c14.295,11.914,27.668,24.066,39.563,35.452c-2.679-6.853-7.385-22.142-3.482-37.43c0.119-0.463,0.588-0.744,1.056-0.625
						c0.465,0.119,0.744,0.592,0.626,1.056c-5.063,19.829,4.86,39.751,4.961,39.949c0.02,0.039,0.02,0.082,0.034,0.123
						c11.098,10.732,20.791,20.666,28.622,28.947c0.188,0.093,0.322,0.247,0.402,0.426c12.888,13.647,20.605,22.679,20.915,23.044
						c0.309,0.366,0.264,0.914-0.102,1.224c-0.163,0.137-0.363,0.205-0.561,0.205c-0.246,0-0.49-0.103-0.663-0.307
						c-0.242-0.285-5.033-5.895-13.29-14.87c-0.028,0.003-0.05,0.024-0.078,0.024c-0.105,0-0.212-0.019-0.315-0.059
						c-0.464-0.181-46.714-17.86-78.091-0.054c-0.415,0.239-0.946,0.09-1.183-0.325c-0.237-0.417-0.092-0.948,0.325-1.183
						c27.756-15.753,66.633-4.449,76.958-0.98c-1.663-1.793-3.447-3.699-5.34-5.702c-3.431-1.515-41.193-17.342-72.452,2.956
						c-0.146,0.095-0.31,0.141-0.473,0.141c-0.283,0-0.561-0.139-0.727-0.395c-0.261-0.402-0.148-0.939,0.254-1.2
						c27.423-17.809,59.627-8.524,70.551-4.502c-16.85-17.674-41.346-41.934-69.33-65.199c-4.963-2.38-41.329-18.384-80.181,2.627
						c-0.132,0.071-0.273,0.105-0.414,0.105c-0.308,0-0.607-0.165-0.763-0.454c-0.229-0.422-0.071-0.949,0.349-1.176
						c32.728-17.703,63.722-9.629,76.388-4.908c-23.773-19.396-49.828-37.787-75.709-50.697c-4.877-1.97-23.123-7.468-51.983,5.519
						c-0.115,0.052-0.236,0.076-0.356,0.076c-0.331,0-0.647-0.19-0.792-0.512C88.891,295.892,89.086,295.379,89.523,295.182z" data-index="13"></path>
				</g>
			</g>
		</g>
		<g style="opacity:0.25;">
			<path style="fill: rgb(9, 12, 30); opacity: 1;" d="M584.549,101.473H196.734c-7.586,0-13.736,6.15-13.736,13.736V380.98
				c0,7.586,6.15,13.736,13.736,13.736h123.972c0,0-0.002,0.031-0.004,0.052c-0.001,0.014-0.002,0.033-0.004,0.054
				c-0.003,0.048-0.009,0.117-0.015,0.198c-0.002,0.029-0.005,0.066-0.008,0.099c-0.005,0.069-0.012,0.15-0.02,0.236
				c-0.004,0.049-0.008,0.095-0.013,0.15c-0.011,0.121-0.024,0.26-0.038,0.406c-0.007,0.069-0.014,0.143-0.021,0.218
				c-0.012,0.125-0.026,0.259-0.041,0.398c-0.011,0.11-0.024,0.225-0.037,0.343c-0.015,0.139-0.031,0.284-0.049,0.434
				c-0.012,0.108-0.025,0.216-0.038,0.33c-0.025,0.207-0.051,0.424-0.08,0.648c-0.016,0.124-0.033,0.253-0.05,0.382
				c-0.019,0.147-0.04,0.299-0.061,0.452c-0.026,0.192-0.054,0.388-0.083,0.59c-0.028,0.192-0.057,0.388-0.087,0.588
				c-0.024,0.159-0.049,0.322-0.075,0.486c-0.029,0.183-0.06,0.371-0.091,0.56c-0.04,0.242-0.082,0.489-0.125,0.74
				c-0.031,0.178-0.063,0.359-0.096,0.541c-0.033,0.182-0.066,0.364-0.101,0.549c-0.054,0.289-0.111,0.582-0.17,0.878
				c-0.037,0.187-0.077,0.377-0.116,0.567c-0.039,0.189-0.08,0.38-0.121,0.572c-0.057,0.266-0.117,0.534-0.178,0.804
				c-0.052,0.23-0.106,0.461-0.161,0.694c-0.047,0.197-0.095,0.394-0.144,0.592c-0.058,0.233-0.119,0.468-0.18,0.703
				c-0.07,0.269-0.142,0.538-0.217,0.808c-0.059,0.215-0.12,0.431-0.182,0.646c-0.054,0.189-0.109,0.378-0.165,0.567
				c-0.099,0.332-0.203,0.665-0.309,0.996c-0.058,0.179-0.117,0.358-0.177,0.537c-0.079,0.238-0.161,0.474-0.244,0.711
				c-0.077,0.218-0.154,0.435-0.234,0.651c-0.102,0.277-0.207,0.553-0.315,0.827c-0.066,0.167-0.133,0.334-0.201,0.5
				c-2.38,5.811-6.039,10.664-11.637,10.664c-13.961,0-21.229,8.184-21.229,15.886h105.257h3.587h105.257
				c0-7.702-7.268-15.886-21.229-15.886c-13.96,0-15.886-30.172-15.886-30.172h123.972c7.586,0,13.736-6.15,13.736-13.736V115.209
				C598.285,107.623,592.135,101.473,584.549,101.473z" data-index="14"></path>
			<path style="fill: rgb(9, 12, 30); opacity: 1;" d="M699.631,147.788h-68.632c-4.976,0-9.01,4.034-9.01,9.01v61.481l-13.636,25.833l29.847-22.238
				h61.431c4.976,0,9.01-4.034,9.01-9.01v-56.066C708.641,151.822,704.607,147.788,699.631,147.788z" data-index="15"></path>
			<path style="fill: rgb(9, 12, 30); opacity: 1;" d="M628.981,143.018h52.458c3.682,0,6.667-2.985,6.667-6.667v-7.848c0-3.682-2.985-6.667-6.667-6.667
				h-52.458c-3.682,0-6.667,2.985-6.667,6.667v7.848C622.314,140.033,625.299,143.018,628.981,143.018z" data-index="16"></path>
		</g>
		<g>
			<path style="fill: rgb(85, 28, 125); opacity: 1;" d="M578.549,101.473H190.734c-7.586,0-13.736,6.15-13.736,13.737v265.77
				c0,7.586,6.15,13.736,13.736,13.736h387.815c7.586,0,13.736-6.15,13.736-13.736V115.21
				C592.285,107.623,586.135,101.473,578.549,101.473z" data-index="17"></path>
			<path style="fill:#F4EFF0;" d="M566.032,109.846H203.25c-7.586,0-13.736,6.15-13.736,13.737V356.49
				c0,7.586,6.15,13.736,13.736,13.736h362.782c7.586,0,13.737-6.15,13.737-13.736V123.583
				C579.769,115.996,573.619,109.846,566.032,109.846z" data-index="18"></path>
			<linearGradient id="SVGID_1_" gradientUnits="userSpaceOnUse" x1="384.6412" y1="370.2266" x2="384.6412" y2="109.8464">
				<stop offset="0" style="stop-color:#6DE2CC;stop-opacity:0.3"></stop>
				<stop offset="1" style="stop-color:#5083C2;stop-opacity:0"></stop>
			</linearGradient>
			<path style="fill: url(&quot;#SVGID_1_&quot;); opacity: 1;" d="M566.032,109.846H203.25c-7.586,0-13.736,6.15-13.736,13.737V356.49
				c0,7.586,6.15,13.736,13.736,13.736h362.782c7.586,0,13.737-6.15,13.737-13.736V123.583
				C579.769,115.996,573.619,109.846,566.032,109.846z" data-index="19"></path>
			<path style="fill: rgb(199, 183, 219); opacity: 1;" d="M470.462,424.889c-13.961,0-15.886-30.172-15.886-30.172h-68.142h-3.587h-68.141
				c0,0-1.926,30.172-15.886,30.172c-13.961,0-21.229,8.184-21.229,15.886h105.257h3.587h105.257
				C491.691,433.073,484.423,424.889,470.462,424.889z" data-index="20"></path>
			<path style="fill: rgb(139, 116, 175); opacity: 1;" d="M386.435,394.716h-3.587h-68.141c0,0-0.748,11.68-4.674,20.506l144.544-20.506H386.435z" data-index="21"></path>
			<path style="fill: rgb(226, 176, 188); opacity: 1;" d="M566.032,109.846H203.25c-7.586,0-13.736,6.15-13.736,13.737v5.844h390.255v-5.844
				C579.769,115.996,573.619,109.846,566.032,109.846z" data-index="22"></path>
			<rect x="477.102" y="137.991" style="fill:#DDC5CB;" width="85.734" height="6.797"></rect>
			<rect x="477.102" y="147.752" style="fill:#DDC5CB;" width="85.734" height="6.797"></rect>
			<rect x="477.102" y="159.766" style="fill:#DDC5CB;" width="85.734" height="6.797"></rect>
			<g>
				<path style="fill:#8DCC94;" d="M224.571,306.778c0,0,37.91,20.346,49.973,54.033c-29.434-11.325-82.584-25.722-121.731-2.108
					c0,0,46.762,0.109,64.213,11.523l60.144,0.2c0.004,0.021,0.009,0.043,0.013,0.064h52.611
					C329.793,370.491,284.281,308.258,224.571,306.778z" data-index="23"></path>
				<path style="fill: rgb(141, 204, 148); opacity: 1;" d="M501.34,360.811c12.063-33.687,49.973-54.033,49.973-54.033
					c-59.71,1.48-105.223,63.713-105.223,63.713h52.611c0.004-0.022,0.009-0.043,0.013-0.064l60.144-0.2
					c17.451-11.414,64.213-11.523,64.213-11.523C583.923,335.089,530.773,349.487,501.34,360.811z" data-index="24"></path>
			</g>
			<rect x="265.546" y="441.21" style="fill:#551C7D;" width="235.886" height="12.721"></rect>
		</g>
		<g style="opacity:0.25;">
			<path style="fill: rgb(9, 12, 30); opacity: 1;" d="M578.549,101.473H471.357v23.48l-13.929,18.815l37.669-13.694h97.087
				c0.035,0,0.067-0.007,0.102-0.008V115.21C592.285,107.623,586.135,101.473,578.549,101.473z" data-index="25"></path>
			<path style="fill: rgb(9, 12, 30); opacity: 1;" d="M571.025,192.168c0-2.571-2.084-4.656-4.656-4.656h-97.078c-2.571,0-4.656,2.084-4.656,4.656
				v36.403c0,2.571,2.084,4.656,4.656,4.656h92.587l16.207,13.663l-7.061-23.589V192.168z" data-index="26"></path>
			<path style="fill: rgb(9, 12, 30); opacity: 1;" d="M262.569,272.01v-71.18h39.303l22.206,12.503l-7.307-29.715v-82.146H190.734
				c-7.586,0-13.736,6.15-13.736,13.737v167.273h75.1C257.881,282.482,262.569,277.794,262.569,272.01z" data-index="27"></path>
			<path style="fill:#090C1E;" d="M374.651,340.922H247.473c-5.23,0-9.469,4.24-9.469,9.469v44.325H384.12v-44.325
				C384.12,345.162,379.881,340.922,374.651,340.922z" data-index="28"></path>
		</g>
		<g>
			<g>
				<g>
					<path style="fill: rgb(222, 149, 149); opacity: 1;" d="M398.428,200.682H384.73h-13.698c0.465,15.37-8.652,23.463-8.652,23.463l22.35,48.14
						l22.35-48.14C407.08,224.145,397.963,216.053,398.428,200.682z" data-index="29"></path>
					<path style="fill:#C67979;" d="M398.428,200.682H384.73h-13.698c0.068,2.241-0.073,4.322-0.354,6.251
						c0.026,0.033,7.968,10.111,28.457,2.007C398.623,206.475,398.336,203.723,398.428,200.682z" data-index="30"></path>
				</g>
				<path style="fill: rgb(236, 193, 186); opacity: 1;" d="M385.725,209.905c6.025-0.117,11.608-1.911,16.372-4.888c0.855-0.534,1.693-1.094,2.492-1.702
					c0.737-0.561,1.439-1.162,2.124-1.782c6.67-6.037,10.814-14.788,10.627-24.49l-0.783-40.531l-64.477,1.246l0.783,40.53
					c0.141,7.296,2.723,13.956,6.913,19.28c1.202,1.527,2.542,2.937,3.994,4.222c1.401,1.239,2.907,2.362,4.505,3.348
					C373.345,208.263,379.327,210.029,385.725,209.905z" data-index="31"></path>
				<g>
					<g>
						<path style="fill:#C12E23;" d="M394.47,163.999c0,0,8.991-5.001,15.181,0.438c6.19,5.439,1.802-4.174-4.448-5.837
							c-6.249-1.663-8.615,0.639-8.615,0.639s-0.789-0.956-1.725-1.066C392.264,157.868,390.541,165.792,394.47,163.999z" data-index="32"></path>
						<path style="fill:#C12E23;" d="M372.833,163.984c0,0-9.081-4.836-15.171,0.715c-6.09,5.551-1.878-4.141,4.34-5.918
							c6.218-1.777,8.626,0.482,8.626,0.482s0.771-0.97,1.705-1.097C374.926,157.813,376.794,165.705,372.833,163.984z" data-index="33"></path>
					</g>
					<g>
						<path style="fill:#2C2636;" d="M360.396,174.473c-0.301-0.134-0.504-0.444-0.484-0.793c0.018-0.301,0.195-0.554,0.444-0.681
							c0.039-0.032,0.087-0.076,0.147-0.128c5.086-4.472,9.584-1.615,12.46,1.569c0.303,0.335,0.276,0.852-0.059,1.154
							c-0.334,0.303-0.849,0.281-1.154-0.059c-5.229-5.784-8.946-2.512-10.168-1.437c-0.307,0.27-0.529,0.465-0.899,0.445
							C360.58,174.537,360.484,174.512,360.396,174.473z" data-index="34"></path>
						<path style="fill:#2C2636;" d="M408.066,174.473c0.301-0.134,0.504-0.444,0.484-0.793c-0.018-0.301-0.195-0.554-0.444-0.681
							c-0.039-0.032-0.087-0.076-0.147-0.128c-5.085-4.472-9.584-1.615-12.46,1.569c-0.303,0.335-0.276,0.852,0.059,1.154
							c0.334,0.303,0.849,0.281,1.154-0.059c5.229-5.784,8.946-2.512,10.169-1.437c0.307,0.27,0.529,0.465,0.899,0.445
							C407.882,174.537,407.978,174.512,408.066,174.473z" data-index="35"></path>
					</g>
					<g>
						<path style="fill: rgb(223, 118, 96); opacity: 1;" d="M359.377,185.029c-2.367,1.699-1.673,6.718,1.551,11.211c3.224,4.493,7.756,6.759,10.124,5.06
							c2.367-1.698,1.673-6.718-1.551-11.211C366.277,185.596,361.745,183.331,359.377,185.029z" data-index="36"></path>
						<path style="fill:#DF7660;" d="M410.212,185.029c2.367,1.699,1.673,6.718-1.551,11.211c-3.224,4.493-7.756,6.759-10.124,5.06
							c-2.367-1.698-1.673-6.718,1.551-11.211C403.312,185.596,407.844,183.331,410.212,185.029z" data-index="37"></path>
					</g>
					<g>
						<path style="fill:#EA344F;" d="M389.748,183.673l-0.282-0.003l-4.287-0.038l-0.902-0.008l-4.286-0.038l-0.282-0.003
							c-0.405-0.003-0.735,0.238-0.738,0.54l-0.02,2.272c-0.003,0.302,0.323,0.55,0.728,0.553l0.282,0.003
							c0,0,1.54,0.21,1.759,0.969c0,0-0.041,0.392,1.689,0.408c0.338,0.003,0.608,0.005,0.827,0.007
							c0.901,0.008,0.902,0.008,0.902,0.008c0.219,0.002,0.489,0.004,0.827,0.007c1.729,0.015,1.695-0.378,1.695-0.378
							c0.232-0.755,1.776-0.938,1.776-0.938l0.282,0.003c0.405,0.004,0.735-0.238,0.738-0.54l0.02-2.272
							C390.479,183.924,390.153,183.676,389.748,183.673z" data-index="38"></path>
						<path style="fill: rgb(224, 163, 139); opacity: 1;" d="M379.37,183.65c0,0,4.193-5.95,10.721,0.098L379.37,183.65z" data-index="39"></path>
					</g>
					<path style="fill:#EA344F;" d="M377.486,195.983c0,0,6.955,7.943,14.67,0H377.486z" data-index="40"></path>
				</g>
				<path style="fill:#EFF2F4;" d="M402.679,154.648c-8.353,0-15.149,6.796-15.149,15.149c0,3.379,1.126,6.492,3.003,9.015
					c-5.069-1.915-9.392-0.975-11.783-0.082c1.84-2.508,2.942-5.591,2.942-8.933c0-8.353-6.796-15.149-15.149-15.149
					c-8.353,0-15.149,6.796-15.149,15.149c0,8.353,6.796,15.149,15.149,15.149c4.196,0,7.997-1.716,10.743-4.482
					c0.266-0.159,6.811-3.96,14.662,0.014c2.745,2.758,6.541,4.468,10.731,4.468c8.353,0,15.149-6.796,15.149-15.149
					C417.828,161.444,411.032,154.648,402.679,154.648z M366.542,183.983c-7.822,0-14.186-6.363-14.186-14.186
					c0-7.822,6.364-14.186,14.186-14.186s14.186,6.364,14.186,14.186C380.728,177.62,374.365,183.983,366.542,183.983z
					 M402.679,183.983c-7.822,0-14.186-6.363-14.186-14.186c0-7.822,6.363-14.186,14.186-14.186c7.823,0,14.186,6.364,14.186,14.186
					C416.865,177.62,410.502,183.983,402.679,183.983z" data-index="41"></path>
			</g>
			<path style="fill: rgb(132, 32, 63); opacity: 1;" d="M428.435,169.025c0-25.465-9.45-55.057-35.095-60.493c12.034-5.247,19.704-12.403,18.167-17.829
				c-1.676-5.913-13.74-7.838-28.384-5.054c13.597-7.267,30.951-6.566,30.951-6.566c-25.159-6.574-49.999,10.469-59.409,17.997
				c-1.521,1.108-2.851,2.236-3.95,3.365l-0.002,0.002l0,0c-2.874,2.954-4.205,5.905-3.479,8.469
				c1.004,3.542,5.739,5.65,12.519,6.176c-12.255,9.434-16.205,26.686-16.044,45.026c0.241,27.44-14.201,40.197-22.626,55.602
				c-4.525,8.274-4.188,15.503-2.907,20.426c13.634-9.815,51.103-23.628,51.203-23.665c0.588-1.793,1.07-3.786,1.361-5.979
				c-0.841-0.421-1.665-0.872-2.462-1.363c-1.599-0.986-3.104-2.108-4.505-3.348c-1.452-1.285-2.792-2.695-3.994-4.222
				c-3.443-4.375-5.797-9.653-6.607-15.443c1.6,3.23,3.174,3.266,3.174,3.266c-2.927-1.301-1.919-22.387-1.69-26.567l3.317-6.65
				c1.748,5.175,0.944,11.551,0.944,11.551c8.589-4.335,16.201-15.162,16.201-15.162c0.479,5.536-1.944,10.123-1.944,10.123
				c6.599-4.319,10.25-16.382,10.25-16.382c-0.241,11.554,9.833,16.762,9.833,16.762c-0.758-7.309,2.032-13.873,2.032-13.873
				c2.959,16.127,13.263,17.852,13.263,17.852c-3.715-4.785-2.502-15.926-2.502-15.926c0.735,6.432,6.768,12.322,9.582,14.75
				c0.302,7.225,0.635,22.423-1.835,23.521c0,0,1.63-0.047,3.258-3.448c-1.033,7.723-4.816,14.588-10.341,19.589
				c-0.685,0.62-1.388,1.221-2.124,1.782c-0.8,0.609-1.637,1.168-2.492,1.702c-1.067,0.666-2.187,1.25-3.332,1.79
				c0.299,2.104,0.773,4.02,1.345,5.75c2.811,1.044,34.575,12.926,48.923,22.182C446.702,217.997,428.435,191.515,428.435,169.025z" data-index="42"></path>
			<path style="fill:#C12E23;" d="M359.752,115.093c0,0,11.73-11.452,33.587-6.561C393.339,108.532,372.002,97.196,359.752,115.093z
				" data-index="43"></path>
			<polygon style="fill:none;" points="417.07,163.047 417.07,163.047 417.07,163.047 			"></polygon>
			<g>
				<path style="fill:#FE4A79;" d="M372.502,224.145c0,0,7.879,9.628,23.521,0v61.94h-22.85L372.502,224.145z" data-index="44"></path>
				<g>
					<path style="fill: rgb(64, 51, 131); opacity: 1;" d="M454.94,239.55c-7.702-9.628-55.038-27.069-55.038-27.069
						c-1.055,7.019-14.116,45.938-15.261,47.288c-1.145-1.35-14.206-40.269-15.261-47.288c0,0-47.335,17.441-55.037,27.069
						c-7.702,9.628-29.365,130.941-29.365,130.941h99.575h0.178h99.575C484.305,370.491,462.642,249.178,454.94,239.55z" data-index="45"></path>
					<g>
						<polygon style="fill:#211C56;" points="369.378,212.481 377.009,261.052 384.583,259.778 392.156,261.052 399.788,212.481 
							384.583,259.588 						"></polygon>
						<polygon style="fill:#211C56;" points="432.431,252.066 449.057,370.491 456.88,370.491 						"></polygon>
						<polygon style="fill:#211C56;" points="319.953,370.491 336.579,252.066 312.13,370.491 						"></polygon>
					</g>
					<polygon style="fill:#EFF2F4;" points="399.788,212.481 384.583,259.588 369.378,212.481 373.796,256.88 384.534,259.74 
						384.525,259.768 384.583,259.753 384.641,259.768 384.632,259.74 395.37,256.88 					"></polygon>
					<rect x="383.562" y="259.768" style="fill:#5A50BC;" width="1.926" height="110.722"></rect>
				</g>
			</g>
			<g>
				<path style="fill: rgb(20, 16, 63); opacity: 1;" d="M425.926,156.323c-2.043-30.446-19.604-54.314-40.901-54.314
					c-21.306,0-38.873,23.89-40.903,54.356c-2.775,0.369-4.837,2.82-4.667,5.659l1.062,17.72c0.178,2.971,2.731,5.236,5.703,5.058
					c2.971-0.178,5.236-2.731,5.058-5.702l-1.062-17.72c-0.125-2.091-1.429-3.828-3.225-4.614
					c1.851-29.062,18.2-51.868,38.035-51.868c19.876,0,36.248,22.9,38.044,52.047c-1.604,0.852-2.742,2.489-2.858,4.435
					l-1.062,17.72c-0.178,2.971,2.086,5.524,5.058,5.702l0,0c2.971,0.178,5.524-2.086,5.703-5.058l1.062-17.72
					C431.149,159.057,428.891,156.508,425.926,156.323z" data-index="46"></path>
				<path style="fill: rgb(20, 16, 63); opacity: 1;" d="M437.554,168.455l-3.382-0.194c-1.387-0.08-2.576,0.98-2.655,2.367
					c-0.08,1.387,0.98,2.576,2.367,2.655l0.754,0.043l-0.785,16.509c-0.275,1.13-4.833,17.427-34.975,17.916
					c-0.35-2.19-2.198-3.908-4.501-4.011l-7.374-0.329c-2.634-0.117-4.864,1.923-4.982,4.557c-0.117,2.634,1.923,4.864,4.556,4.982
					l7.374,0.329c2.299,0.103,4.29-1.44,4.837-3.585c32.667-0.404,36.79-18.666,36.966-19.538c0.009-0.048,0.015-0.096,0.018-0.144
					l0.788-16.574l0.705,0.04c1.387,0.08,2.576-0.98,2.655-2.367C440.001,169.723,438.941,168.535,437.554,168.455z" data-index="47"></path>
				<path style="fill:#FE4A79;" d="M338.436,177.838L338.436,177.838c-1.138,0.068-2.115-0.799-2.183-1.937l-0.632-10.55
					c-0.068-1.138,0.799-2.115,1.936-2.183l0,0c1.138-0.068,2.115,0.799,2.183,1.936l0.632,10.55
					C340.44,176.792,339.573,177.77,338.436,177.838z" data-index="48"></path>
				<path style="fill:#FE4A79;" d="M431.991,177.838L431.991,177.838c1.138,0.068,2.115-0.799,2.183-1.937l0.632-10.55
					c0.068-1.138-0.799-2.115-1.937-2.183l0,0c-1.138-0.068-2.115,0.799-2.183,1.936l-0.632,10.55
					C429.987,176.792,430.854,177.77,431.991,177.838z" data-index="49"></path>
			</g>
		</g>
		<g>
			<g>
				<path style="fill: rgb(239, 205, 202); opacity: 1;" d="M569.791,468.529l0.361-11.654h10.51l-0.04,10.811
					C580.622,467.686,576.731,478.497,569.791,468.529z" data-index="50"></path>
				<path style="fill: rgb(34, 30, 86); opacity: 1;" d="M584.233,476.472h-30.689c0,0,1.926-7.943,16.247-7.943c0,0,8.665,2.888,10.831-0.842
					C580.622,467.686,584.233,470.093,584.233,476.472z" data-index="51"></path>
				<rect x="553.544" y="476.472" style="fill:#535DA5;" width="30.689" height="2.166"></rect>
			</g>
			<g>
				<path style="fill:#EFCDCA;" d="M603.008,468.529l0.361-11.654h10.511l-0.04,10.811
					C613.839,467.686,609.948,478.497,603.008,468.529z" data-index="52"></path>
				<path style="fill: rgb(34, 30, 86); opacity: 1;" d="M617.45,476.472H586.76c0,0,1.926-7.943,16.247-7.943c0,0,8.665,2.888,10.832-0.842
					C613.839,467.686,617.45,470.093,617.45,476.472z" data-index="53"></path>
				<rect x="586.76" y="476.472" style="fill:#535DA5;" width="30.689" height="2.166"></rect>
			</g>
			<g>
				<polygon style="fill:#3C3084;" points="566.618,359.615 564.937,465.58 583.711,465.58 590.331,386.39 599.598,465.58 
					615.725,465.58 613.529,356.626 				"></polygon>
				<g>
					<path style="fill: rgb(37, 36, 107); opacity: 1;" d="M613.529,356.626l-46.911,2.989c0,0,29.183,5.903,47.048,3.822L613.529,356.626z" data-index="54"></path>
					<polygon style="fill:#25246B;" points="590.331,386.39 599.598,465.58 593.5,377.403 					"></polygon>
				</g>
			</g>
			<g>
				<path style="fill: rgb(215, 144, 129); opacity: 1;" d="M578.616,281.914c0,0-0.272,4.592-0.124,7.381c0.147,2.789,12.196-3.486,12.196-3.486
					s0.523-7.392,0.178-10.543C590.519,272.115,578.616,281.914,578.616,281.914z" data-index="55"></path>
				<path style="fill: rgb(239, 205, 202); opacity: 1;" d="M569.414,264.642c-0.162,9.604,4.882,17.478,11.265,17.585
					c6.383,0.107,11.689-7.591,11.851-17.196c0.162-9.604-4.882-17.477-11.265-17.585
					C574.882,247.339,569.576,255.038,569.414,264.642z" data-index="56"></path>
				<path style="fill: rgb(43, 42, 79); opacity: 1;" d="M571.183,262.606c0,0,2.22,3.581,7.196,3.565l1.368,7.388c0,0,3.071,5.449,0.762,7.913
					c-2.308,2.464,17.68,2.051,21.541-8.532c6.129-16.802-7.968-27.403-15.936-27.039c-7.968,0.364-9.226,2.432-10.914,2.205
					C573.512,247.877,562.205,252.542,571.183,262.606z" data-index="57"></path>
				<path style="fill:#DE9595;" d="M579.688,262.062c2.081,0.256,3.385,3.58,2.912,7.423c-0.473,3.844-2.544,6.752-4.625,6.496
					c-0.067-0.008-0.131-0.029-0.196-0.043c-0.126-0.028-0.248-0.068-0.367-0.118c-1.73-0.727-2.758-3.729-2.358-7.174
					c0.003-0.029,0.005-0.058,0.008-0.088c0.26-2.112,1.004-3.937,1.965-5.115C577.816,262.478,578.75,261.946,579.688,262.062z" data-index="58"></path>
			</g>
			<g>
				<path style="fill: rgb(113, 120, 190); opacity: 1;" d="M592.533,281.754l-15.401,3.863l-2.164,2.247c0,0-6.902,1.765-11.155,7.542
					c-4.252,5.777-17.33,24.391-17.33,24.391l-15.485-19.015l-8.184,8.745c0,0,20.139,28.403,21.984,28.964
					c1.845,0.562,18.614-10.43,18.614-10.43l-2.728,31.371c0,0,43.085,1.926,56.885-4.172l-2.888-15.886l1.955-2.793
					c2.301-3.287,2.897-7.475,1.605-11.274l-11.424-33.591l-14.285-6.74V281.754z" data-index="59"></path>
				<g>
					<polygon style="fill:#535DA5;" points="604.733,294.603 614.682,339.373 616.596,336.637 					"></polygon>
					<polygon style="fill:#535DA5;" points="592.533,284.975 592.533,281.754 574.968,287.863 					"></polygon>
					<path style="fill:#535DA5;" d="M563.412,328.06l-1.851,21.289l4.178-16.876c6.74-6.74,9.949-18.133,9.949-18.133
						C573.923,320.438,563.412,328.06,563.412,328.06z" data-index="60"></path>
				</g>
			</g>
			<path style="fill: rgb(239, 205, 202); opacity: 1;" d="M524.906,307.29c0,0-11.319-8.516-14.528-13.169c-3.209-4.653-0.722-3.45,1.845-1.364
				c2.567,2.086,10.832,6.098,10.912,3.53c0.08-2.567,0.08-7.221,4.333,1.043l2.245,4.823L524.906,307.29z" data-index="61"></path>
		</g>
		<g>
			<path style="fill: rgb(168, 51, 82); opacity: 1;" d="M245.357,49.389h-115.2c-5.784,0-10.472,4.689-10.472,10.473v206.371
				c0,5.784,4.689,10.473,10.472,10.473h115.2c5.784,0,10.473-4.689,10.473-10.473V59.861
				C255.83,54.078,251.141,49.389,245.357,49.389z" data-index="62"></path>
			<path style="fill: rgb(255, 255, 255); opacity: 1;" d="M241.621,59.861H133.893c-3.976,0-7.199,3.223-7.199,7.198v195.055
				c0,3.976,3.223,7.199,7.199,7.199h107.728c3.976,0,7.198-3.223,7.198-7.199V67.06C248.82,63.084,245.597,59.861,241.621,59.861z" data-index="63"></path>
			<path style="fill: rgb(176, 176, 244); opacity: 1;" d="M241.621,59.861H133.893c-3.976,0-7.199,3.223-7.199,7.198v2.504H248.82V67.06
				C248.82,63.084,245.597,59.861,241.621,59.861z" data-index="64"></path>
			<g>
				<circle style="fill:#80C3DD;" cx="163.664" cy="214.176" r="17.673"></circle>
				<path style="fill:#FFFFFF;" d="M172.059,206.906c-0.428-0.39-0.832-0.808-1.231-1.228c-0.37-0.389-0.771-0.71-1.324-0.784
					c-0.133,0-0.266,0-0.399,0c-0.368,0.08-0.721,0.192-1.015,0.441c-0.041,0.035-0.085,0.068-0.123,0.106
					c-0.834,0.833-1.671,1.662-2.498,2.5c-0.615,0.623-0.721,1.479-0.288,2.191c0.195,0.321,0.471,0.547,0.825,0.674
					c0.511,0.184,0.906,0.497,1.126,1.006c0.146,0.339,0.166,0.685,0.071,1.043c-0.24,0.902-0.729,1.665-1.326,2.364
					c-0.761,0.89-1.636,1.643-2.693,2.163c-0.374,0.185-0.762,0.355-1.19,0.336c-0.809-0.037-1.378-0.428-1.664-1.199
					c-0.137-0.37-0.367-0.662-0.708-0.864c-0.647-0.384-1.467-0.332-2.023,0.177c-0.535,0.489-1.037,1.013-1.549,1.526
					c-0.418,0.419-0.852,0.825-1.24,1.27c-0.519,0.595-0.535,1.526-0.074,2.17c0.094,0.132,0.2,0.258,0.314,0.373
					c0.488,0.494,0.99,0.976,1.47,1.478c0.438,0.457,0.964,0.713,1.59,0.778c0.028,0.003,0.055,0.02,0.083,0.03
					c0.254,0,0.508,0,0.761,0c0.336-0.065,0.676-0.114,1.008-0.198c1.366-0.348,2.6-0.989,3.776-1.748
					c1.951-1.26,3.664-2.796,5.194-4.54c1.345-1.533,2.508-3.186,3.31-5.073c0.377-0.887,0.655-1.803,0.683-2.777
					C172.947,208.263,172.719,207.507,172.059,206.906z" data-index="65"></path>
			</g>
			<g>
				<circle style="fill:#CE4966;" cx="213.591" cy="214.176" r="17.672"></circle>
				<path style="fill:#FFFFFF;" d="M224.127,212.994c-0.017-0.022-0.024-0.053-0.036-0.08c-0.176-0.183-0.352-0.366-0.528-0.549
					c-0.28-0.197-0.551-0.409-0.841-0.589c-1.198-0.744-2.516-1.188-3.878-1.509c-2.261-0.533-4.556-0.702-6.872-0.595
					c-2.037,0.094-4.035,0.401-5.951,1.131c-0.901,0.343-1.754,0.778-2.475,1.433c-0.637,0.578-1.023,1.266-0.998,2.159
					c0.016,0.579-0.005,1.16-0.031,1.739c-0.024,0.536,0.023,1.048,0.353,1.498c0.092,0.096,0.184,0.191,0.276,0.287
					c0.312,0.21,0.638,0.386,1.022,0.426c0.054,0.006,0.108,0.014,0.162,0.015c1.178,0.023,2.356,0.052,3.534,0.067
					c0.875,0.011,1.566-0.506,1.779-1.311c0.096-0.363,0.068-0.719-0.086-1.062c-0.222-0.496-0.27-0.998-0.056-1.509
					c0.143-0.341,0.379-0.595,0.703-0.775c0.817-0.453,1.705-0.629,2.623-0.683c1.169-0.069,2.318,0.04,3.426,0.441
					c0.393,0.142,0.785,0.303,1.067,0.624c0.535,0.609,0.646,1.29,0.289,2.03c-0.172,0.356-0.223,0.723-0.132,1.11
					c0.172,0.732,0.778,1.287,1.529,1.335c0.723,0.046,1.449,0.045,2.174,0.058c0.592,0.011,1.185,0.042,1.775,0.013
					c0.789-0.039,1.47-0.673,1.615-1.451c0.03-0.159,0.047-0.323,0.051-0.485c0.018-0.695,0.018-1.39,0.046-2.084
					C224.694,214.047,224.514,213.49,224.127,212.994z" data-index="66"></path>
			</g>
			<g>
				<path style="fill: rgb(176, 176, 244); opacity: 1;" d="M211.05,52.007h-44.845c-1.404,0-2.541,1.138-2.541,2.541c0,1.403,1.138,2.541,2.541,2.541
					h44.845c1.403,0,2.541-1.138,2.541-2.541C213.591,53.145,212.454,52.007,211.05,52.007z" data-index="67"></path>
				<path style="fill:#B0B0F4;" d="M218.789,52.161c-1.318,0-2.387,1.069-2.387,2.387c0,1.318,1.069,2.387,2.387,2.387
					c1.318,0,2.387-1.069,2.387-2.387C221.176,53.23,220.107,52.161,218.789,52.161z" data-index="68"></path>
				<path style="fill:#B0B0F4;" d="M158.957,52.161c-1.318,0-2.387,1.069-2.387,2.387c0,1.318,1.069,2.387,2.387,2.387
					c1.318,0,2.387-1.069,2.387-2.387C161.344,53.23,160.275,52.161,158.957,52.161z" data-index="69"></path>
			</g>
			<g>
				<rect x="133.237" y="242.824" style="fill:#D4E1F2;" width="106.882" height="2.772"></rect>
				<rect x="133.237" y="250.832" style="fill:#D4E1F2;" width="106.882" height="2.772"></rect>
				<rect x="133.237" y="259.149" style="fill:#D4E1F2;" width="106.882" height="2.772"></rect>
			</g>
			<g>
				
					<ellipse transform="matrix(0.9281 -0.3722 0.3722 0.9281 -35.1416 79.0687)" style="fill:#D4E1F2;" cx="187.218" cy="130.551" rx="45.74" ry="45.741"></ellipse>
				<path style="fill: rgb(121, 40, 202); opacity: 1; visibility: visible;" d="M187.218,176.292c13.546,0,25.711-5.893,34.086-15.249c-2.688-13.253-12.895-23.762-25.99-26.888
					c6.669-3.071,11.308-9.795,11.308-17.618c0-10.717-8.688-19.405-19.405-19.405c-10.717,0-19.405,8.688-19.405,19.405
					c0,7.823,4.639,14.548,11.308,17.618c-13.095,3.126-23.302,13.635-25.99,26.888
					C161.507,170.399,173.672,176.292,187.218,176.292z" data-index="70"></path>
				<path style="fill: rgb(255, 255, 255); opacity: 1;" d="M213.903,118.073l-1.494-0.07l0.09-1.221c0.035-0.473-0.408-0.879-0.99-0.908
					c-0.474-0.023-0.89,0.214-1.047,0.559l0.076-1.034c0.091-1.234-1.063-2.293-2.579-2.37
					c-1.045-12.659-10.023-22.582-20.911-22.582c-10.893,0-19.875,9.933-20.913,22.6c-1.419,0.153-2.473,1.173-2.386,2.353
					l0.076,1.034c-0.158-0.344-0.573-0.582-1.047-0.559c-0.582,0.028-1.025,0.435-0.99,0.908l0.323,4.386
					c0.035,0.473,0.535,0.833,1.116,0.805c0.474-0.023,0.852-0.299,0.958-0.656l0.107,1.449c0.091,1.235,1.396,2.177,2.915,2.103
					c1.519-0.074,2.677-1.135,2.586-2.371l-0.543-7.367c-0.064-0.869-0.731-1.591-1.649-1.918
					c0.946-12.083,9.305-21.565,19.446-21.565c10.162,0,18.533,9.521,19.451,21.64c-0.82,0.354-1.402,1.035-1.461,1.844
					l-0.543,7.367c-0.091,1.235,1.067,2.297,2.586,2.371l0,0c1.519,0.074,2.824-0.867,2.916-2.103l0.107-1.449
					c0.106,0.357,0.484,0.633,0.958,0.656h0c0.582,0.028,1.081-0.332,1.116-0.805l0.079-1.078l0.157,0.007l-0.402,6.864
					c-0.141,0.47-2.471,7.246-17.882,7.449c-0.179-0.911-1.124-1.625-2.301-1.668l-3.77-0.137c-1.347-0.049-2.487,0.799-2.547,1.895
					c-0.06,1.095,0.983,2.022,2.33,2.071l3.77,0.137c1.176,0.043,2.193-0.599,2.473-1.491c16.702-0.168,18.81-7.761,18.9-8.123
					c0.005-0.02,0.008-0.04,0.009-0.06l0.403-6.891l0.361,0.017c0.709,0.033,1.317-0.408,1.358-0.984
					C215.154,118.601,214.612,118.106,213.903,118.073z" data-index="71"></path>
			</g>
		</g>
		<g style="opacity:0.25;">
			<path style="fill: rgb(9, 12, 30); opacity: 1;" d="M124.987,222.836h-5.302v43.397c0,5.784,4.689,10.473,10.472,10.473h1.814V229.82
				C131.971,225.963,128.844,222.836,124.987,222.836z" data-index="72"></path>
			<path style="fill:#090C1E;" d="M126.22,143.953v-17.051c0-3.07-2.489-5.558-5.558-5.558h-0.977v28.168h0.977
				C123.732,149.511,126.22,147.023,126.22,143.953z" data-index="73"></path>
			<path style="fill:#090C1E;" d="M126.22,179.113v-17.051c0-3.07-2.489-5.558-5.558-5.558h-0.977v28.168h0.977
				C123.732,184.671,126.22,182.183,126.22,179.113z" data-index="74"></path>
			<path style="fill:#090C1E;" d="M245.303,89.891v100.534c0,5.835,4.704,10.568,10.527,10.622V79.269
				C250.007,79.324,245.303,84.056,245.303,89.891z" data-index="75"></path>
		</g>
		<g>
			<g>
				<path style="fill:#DD786B;" d="M179.652,269.087c-0.274-1.582,13.058-3.041,10.114,6.287c-0.001,0.004-0.002,0.008-0.003,0.011
					c0,0-0.638,0.643-1.278,1.799c-0.628,1.135-1.258,2.764-1.288,4.77c-0.061,4.051-12.327,1.641-9.911-4.304
					c0.413-1.016,0.757-1.879,1.051-2.635c0.734-1.892,1.121-3.063,1.292-3.928C179.788,270.275,179.762,269.722,179.652,269.087z" data-index="76"></path>
				<g>
					<path style="fill:#DE9595;" d="M172.403,258.302c-1.984,0.421-2.962,3.732-2.184,7.395c0.777,3.663,3.016,6.292,4.999,5.871
						c0.064-0.014,0.124-0.039,0.186-0.058c0.324-0.102,0.617-0.288,0.878-0.538c1.226-1.17,1.729-3.821,1.136-6.715
						c-0.006-0.028-0.009-0.056-0.015-0.084c-0.124-0.587-0.29-1.143-0.482-1.669C175.911,259.75,174.069,257.949,172.403,258.302z" data-index="77"></path>
					<path style="fill:#EFCDCA;" d="M199.097,261.279c0,0-1.317,4.257-1.145,7.807c0.172,3.551-4.059,8.883-7.524,10.321
						c-3.465,1.438-10.116-2.613-12.46-5.393c-2.344-2.78-3.626-9.537-3.533-12.541c0.093-3.004,5.445-14.592,13.891-12.592
						C196.774,250.881,201.091,253.997,199.097,261.279z" data-index="78"></path>
					<path style="fill: rgb(196, 69, 30); opacity: 1;" d="M177.203,277.875l0.004,0.007c0.027-0.077,0.047-0.153,0.079-0.231
						c0.413-1.016,0.757-1.879,1.051-2.635c0.058-0.149,0.11-0.287,0.164-0.427c-0.193-0.195-0.375-0.388-0.531-0.574
						c-0.646-0.766-1.209-1.835-1.686-3.042c-0.262,0.25-0.554,0.436-0.878,0.538c-0.062,0.019-0.122,0.044-0.186,0.058
						c-1.984,0.421-4.222-2.207-4.999-5.871c-0.777-3.663,0.201-6.974,2.184-7.395c0.52-0.11,1.056,0.01,1.579,0.283
						c-0.038,0.215-1.462,8.315,2.029,11.665c0,0-1.703-6.533,0.909-7.746c5.343-1.903,9.391-6.991,9.391-6.991l-4.123,5.121
						c4.563-0.495,10.36-4.319,10.36-4.319l-2.905,3.748c5.198-0.665,7.311-5.112,7.311-5.112c-0.689,3.49,2.144,6.327,2.144,6.327
						s-1.317,4.257-1.145,7.807c0.172,3.551-4.059,8.883-7.524,10.321c-0.821,0.341-1.823,0.366-2.903,0.178
						c-0.058,0.222-0.1,0.463-0.143,0.701c0.026-0.011,0.049-0.016,0.075-0.027c0,0,7.133,2.45,10.411,3.729
						c1.287,0.502,3.088,3.879,4.801,7.794c3.319-5.097-3.337-17.667-1.166-25.885c2.417-9.153,1.233-21.777-9.277-24.264
						c-10.511-2.487-18.454,4.172-20.344,12.516c-1.89,8.344-6.775,13.479-11.027,20.7c-3.611,6.131-2.416,11.215,0.039,14.87
						c1.295-2.235,2.338-3.897,2.9-4.578C168.588,279.33,177.203,277.875,177.203,277.875z" data-index="79"></path>
				</g>
			</g>
			<g>
				<g>
					<path style="fill:#EFCDCA;" d="M167.699,465.052l-0.361-11.654h-10.511l0.04,10.811
						C156.867,464.21,160.758,475.022,167.699,465.052z" data-index="80"></path>
					<path style="fill:#CE4966;" d="M153.257,472.996h30.689c0,0-1.926-7.943-16.247-7.943c0,0-8.665,2.888-10.831-0.842
						C156.867,464.21,153.257,466.617,153.257,472.996z" data-index="81"></path>
					
						<rect x="153.257" y="472.996" transform="matrix(-1 -1.224647e-16 1.224647e-16 -1 337.2022 948.1575)" style="fill:#A83352;" width="30.689" height="2.166"></rect>
				</g>
				<g>
					<path style="fill:#EFCDCA;" d="M204.977,465.052l-0.361-11.654h-10.51l0.04,10.811
						C194.145,464.21,198.037,475.022,204.977,465.052z" data-index="82"></path>
					<path style="fill: rgb(206, 73, 102); opacity: 1;" d="M190.535,472.996h30.689c0,0-1.926-7.943-16.247-7.943c0,0-8.665,2.888-10.831-0.842
						C194.145,464.21,190.535,466.617,190.535,472.996z" data-index="83"></path>
					
						<rect x="190.535" y="472.996" transform="matrix(-1 -1.224647e-16 1.224647e-16 -1 411.7591 948.1575)" style="fill:#A83352;" width="30.689" height="2.166"></rect>
				</g>
			</g>
			<g>
				<polygon style="fill:#7178BE;" points="158.949,357.45 149.405,459.825 171.201,464.28 182.92,376.986 188.497,464.28 
					209.201,458.777 202.251,359.483 				"></polygon>
				<g>
					<path style="fill:#535DA5;" d="M158.949,357.45l-0.903,9.688c28.722,6.68,44.381-5.143,44.381-5.143v-4.545H158.949z" data-index="84"></path>
					<polygon style="fill:#535DA5;" points="182.92,376.986 188.497,464.28 185.542,372.975 					"></polygon>
				</g>
			</g>
			<g>
				<path style="fill: rgb(60, 48, 132); opacity: 1;" d="M187.458,280.258c0,0,7.133,2.45,10.411,3.729c3.279,1.279,9.898,21.21,9.898,21.21l5.271,15.403
					l-6.764,5.856v33.426c-23.851,14.89-53.461-1.178-53.461-1.178l5.233-29.788c-2.899-1.054-10.937-6.457-10.278-11.596
					c0.659-5.139,13.438-29.039,16.028-32.179c4.792-5.811,13.408-7.266,13.408-7.266S180.027,283.355,187.458,280.258z" data-index="85"></path>
				<g>
					<path style="fill:#25246B;" d="M212.193,318.235l-24.298,0.134l-7.934,3.516c-6.971,8.604-21.915,7.031-21.915,7.031
						c8.343,3.6,22.338-2.476,22.338-2.476c2.759-0.321,8.313-3.691,8.313-3.691l17.009-0.844l0.568,4.551l6.764-5.856
						L212.193,318.235z" data-index="86"></path>
					<path style="fill:#25246B;" d="M176.882,314.825c-4.594-1.987-12.897-2.705-12.897-2.705l2.036-15.848l-4.122,16.528
						c-2.407,0.481-6.74,3.37-6.74,3.37C164.306,312.318,176.882,314.825,176.882,314.825z" data-index="87"></path>
				</g>
			</g>
			<g>
				<path style="fill:#A83352;" d="M207.997,319.428h-26.27c-1.873,0-3.037-2.035-2.087-3.649l12.04-20.457
					c0.435-0.739,1.229-1.193,2.087-1.193h26.27c1.873,0,3.037,2.035,2.087,3.65l-12.04,20.457
					C209.649,318.974,208.855,319.428,207.997,319.428z" data-index="88"></path>
				<path style="fill:#CE4966;" d="M210.106,319.428h-26.27c-1.873,0-3.037-2.035-2.087-3.649l12.04-20.457
					c0.435-0.739,1.229-1.193,2.087-1.193h26.27c1.873,0,3.037,2.035,2.087,3.65l-12.04,20.457
					C211.757,318.974,210.964,319.428,210.106,319.428z" data-index="89"></path>
			</g>
			<g>
				<path style="fill:#EFCDCA;" d="M219.593,305.87c0,0-5.26,1.176-5.03,3.365c0.23,2.189,0.787,3.843,0.787,3.843l-2.86,4.754
					c0,0,3.052,1.946,5.76-1.569C220.958,312.749,222.261,307.517,219.593,305.87z" data-index="90"></path>
				<path style="fill:#EFCDCA;" d="M176.882,314.825c0,0,3.616-8.381,5.109-8.036c1.492,0.344,1.599,2.176,1.599,2.176
					s7.47-3.726,8.217-1.086c0.746,2.641,1.394,14.58-11.845,14.006C179.961,321.885,175.735,317.303,176.882,314.825z" data-index="91"></path>
			</g>
		</g>
		<g>
			<g>
				<path style="fill: rgb(157, 190, 237); opacity: 1; visibility: visible; stroke: rgb(157, 190, 237);" d="M464.617,119.176V92.872c0-2.046,2.256-3.704,5.039-3.704h115.788
					c2.783,0,5.039,1.658,5.039,3.704v27.721c0,2.046-2.256,3.704-5.039,3.704h-97.087l-37.669,13.694L464.617,119.176z" data-index="92"></path>
				<text transform="matrix(1 0 0 1 484.3047 112.2651)" style="fill:#FFFFFF; font-family:'Dosis-Medium'; font-size:15.6503px;">ONLINE HELP</text>
			</g>
			<g>
				<path style="fill: rgb(157, 190, 237); opacity: 1;" d="M614.989,153.798v61.481l-13.636,25.833l29.847-22.238h61.431c4.976,0,9.01-4.034,9.01-9.01
					v-56.066c0-4.976-4.034-9.01-9.01-9.01h-68.632C619.023,144.788,614.989,148.822,614.989,153.798z" data-index="93"></path>
				<g>
					<g>
						<path style="fill:#FFFFFF;" d="M652.336,173.656c-0.072-0.101-0.212-0.125-0.313-0.053c-3.758,2.672-6.291,7.939-7.593,11.257
							c1.659-8.392,4.034-18.312,6.563-22.054c0.07-0.103,0.042-0.242-0.06-0.312c-0.103-0.069-0.242-0.043-0.312,0.06
							c-2.112,3.125-4.086,10.289-5.642,17.38c-1.109-1.692-1.639-7.419-1.755-9.65c-0.006-0.124-0.095-0.218-0.236-0.213
							c-0.124,0.007-0.219,0.112-0.213,0.236c0.018,0.354,0.458,8.497,2.08,10.19c-0.674,3.114-1.266,6.192-1.751,8.887
							c-0.93-0.604-2.256-3.684-2.924-5.647c-0.04-0.118-0.168-0.181-0.285-0.14c-0.118,0.04-0.18,0.168-0.14,0.285
							c0.19,0.559,1.828,5.258,3.267,5.966c-0.813,4.554-1.31,7.914-1.367,8.306c-0.018,0.123,0.067,0.237,0.19,0.255
							c0.011,0.002,0.022,0.002,0.033,0.002c0.11,0,0.205-0.081,0.222-0.192c0.006-0.039,0.088-0.597,0.237-1.546
							c0.334-0.569,4.472-7.563,7.545-10.107c0.096-0.079,0.109-0.221,0.03-0.316c-0.079-0.096-0.222-0.109-0.316-0.03
							c-2.57,2.127-5.758,7.113-7.069,9.261c0.302-1.869,0.755-4.555,1.326-7.611c0.238-0.789,3.15-10.145,8.432-13.9
							C652.385,173.897,652.408,173.757,652.336,173.656z" data-index="94"></path>
						<g>
							<path style="fill:#18D136;" d="M643.918,193.846c1.748-2.037,5.738-3.43,9.233-7.336c3.496-3.906,3.715-9.531,3.715-9.531
								C646.945,180.06,643.918,193.846,643.918,193.846z" data-index="95"></path>
							<path style="fill:#18D136;" d="M654.702,175.65c3.496-3.906,3.715-9.531,3.715-9.531
								c-9.922,3.081-12.948,16.867-12.948,16.867C647.217,180.949,651.206,179.556,654.702,175.65z" data-index="96"></path>
							<path style="fill:#18D136;" d="M638.24,173.786c-5.242,8.472,4.203,14.658,4.203,14.658c-1-1.359-1.432-5.297-1.479-8.971
								C640.919,175.799,638.24,173.786,638.24,173.786z" data-index="97"></path>
							<path style="fill:#18D136;" d="M644.506,168.22c0.791-3.589-1.361-6.158-1.361-6.158c-7.031,7.059,0.761,15.23,0.761,15.23
								C643.242,175.742,643.715,171.809,644.506,168.22z" data-index="98"></path>
							<path style="fill:#18D136;" d="M654.746,155.34c-7.592,2.134-7.821,18.106-7.997,18.131l0.176-0.025
								C656.447,164.964,654.746,155.34,654.746,155.34z" data-index="99"></path>
						</g>
					</g>
					<path style="fill:#403383;" d="M650.648,204.357h-16.41c-3.284,0-5.946-2.662-5.946-5.946l0,0h28.303l0,0
						C656.595,201.694,653.933,204.357,650.648,204.357z" data-index="100"></path>
				</g>
				<text transform="matrix(1 0 0 1 667.7734 198.4102)" style="fill:#FFFFFF; font-family:'Dosis-Medium'; font-size:39.9363px;">?</text>
			</g>
			<g>
				<path style="fill: rgb(157, 190, 237); opacity: 1;" d="M674.439,140.018h-52.458c-3.682,0-6.667-2.985-6.667-6.667v-7.848
					c0-3.682,2.985-6.667,6.667-6.667h52.458c3.682,0,6.667,2.985,6.667,6.667v7.848
					C681.105,137.033,678.121,140.018,674.439,140.018z" data-index="101"></path>
				<g>
					<text transform="matrix(1 0 0 1 636.6553 133.9209)" style="fill:#FFFFFF; font-family:'Dosis-Medium'; font-size:11.5536px;">HELP</text>
				</g>
			</g>
			<g>
				<path style="fill: rgb(157, 190, 237); opacity: 1;" d="M564.286,217.523v-31.133c0-2.571-2.084-4.656-4.656-4.656h-97.078
					c-2.571,0-4.656,2.084-4.656,4.656v36.403c0,2.571,2.084,4.656,4.656,4.656h92.587l16.207,13.663L564.286,217.523z" data-index="102"></path>
				<g>
					<rect x="467.804" y="195.053" style="fill:#F7CE45;" width="33.454" height="21.452"></rect>
					<polygon style="fill:#D8AE39;" points="467.804,216.506 484.531,201.18 501.258,216.506 					"></polygon>
					<polygon style="fill:#F5D688;" points="467.804,195.053 484.531,210.379 501.258,195.053 					"></polygon>
				</g>
				<g>
					<rect x="505.876" y="195.861" style="fill:#FFFFFF;" width="51.189" height="1.765"></rect>
					<rect x="505.876" y="199.414" style="fill:#FFFFFF;" width="51.189" height="1.765"></rect>
					<rect x="505.876" y="203.12" style="fill:#FFFFFF;" width="51.189" height="1.765"></rect>
					<rect x="505.876" y="206.674" style="fill:#FFFFFF;" width="51.189" height="1.765"></rect>
					<rect x="505.876" y="210.624" style="fill:#FFFFFF;" width="51.189" height="1.765"></rect>
					<rect x="505.876" y="214.178" style="fill:#FFFFFF;" width="51.189" height="1.765"></rect>
				</g>
			</g>
			<g>
				<path style="fill: rgb(157, 190, 237); opacity: 1;" d="M127.971,288.622V223.82c0-3.857-3.127-6.984-6.984-6.984H57.771
					c-3.857,0-6.984,3.127-6.984,6.984v70.613c0,3.857,3.127,6.984,6.984,6.984h47.494l39.796,19.859L127.971,288.622z" data-index="103"></path>
				<g>
					<g>
						
							<ellipse transform="matrix(0.2271 -0.9739 0.9739 0.2271 -173.2212 278.3387)" style="fill:#FFFFFF;" cx="88.737" cy="248.295" rx="22.306" ry="22.306"></ellipse>
						<path style="fill:#60D89E;" d="M93.008,228.348c0,0-7.917,8.987-5.776,19.878c-3.481-3.237-8.148-5.693-14.305-5.693
							c0,0,1.923,21.537,23.332,21.152c0,0-0.535-2.144-1.842-5.063C96.744,254.33,103.544,239.456,93.008,228.348z" data-index="104"></path>
					</g>
					<g>
						<g>
							<rect x="60.209" y="275.859" style="fill:#FFFFFF;" width="42.213" height="1.767"></rect>
							<rect x="60.209" y="278.949" style="fill:#FFFFFF;" width="42.213" height="1.767"></rect>
							<rect x="60.209" y="282.364" style="fill:#FFFFFF;" width="42.213" height="1.767"></rect>
							<rect x="60.209" y="285.454" style="fill:#FFFFFF;" width="42.213" height="1.767"></rect>
						</g>
					</g>
					<text transform="matrix(1 0 0 1 107.542 286.1875)" style="fill:#FFFFFF; font-family:'Dosis-Medium'; font-size:15.2253px;">?</text>
				</g>
			</g>
			<g>
				<path style="fill: rgb(157, 190, 237); opacity: 1;" d="M116.662,115.343h-55.85c-3.07,0-5.558,2.489-5.558,5.558v17.051c0,3.07,2.489,5.558,5.558,5.558
					h55.85c3.07,0,5.558-2.489,5.558-5.558v-17.051C122.22,117.832,119.732,115.343,116.662,115.343z" data-index="105"></path>
				<g>
					<circle style="fill:#FFFFFF;" cx="73.54" cy="129.427" r="3.851"></circle>
					<circle style="fill:#FFFFFF;" cx="89.351" cy="129.427" r="3.851"></circle>
					<circle style="fill:#FFFFFF;" cx="103.934" cy="129.427" r="3.851"></circle>
				</g>
			</g>
			<g>
				<path style="fill: rgb(157, 190, 237); opacity: 1;" d="M116.662,150.503h-55.85c-3.07,0-5.558,2.489-5.558,5.558v17.051c0,3.07,2.489,5.558,5.558,5.558
					h55.85c3.07,0,5.558-2.489,5.558-5.558v-17.051C122.22,152.992,119.732,150.503,116.662,150.503z" data-index="106"></path>
				<g>
					<circle style="fill:#FFFFFF;" cx="73.54" cy="164.587" r="3.851"></circle>
					<circle style="fill:#FFFFFF;" cx="89.351" cy="164.587" r="3.851"></circle>
					<circle style="fill:#FFFFFF;" cx="103.934" cy="164.587" r="3.851"></circle>
				</g>
			</g>
			<g>
				<path style="fill:#9DBEED;" d="M367.912,335.146H240.733c-5.23,0-9.469,4.24-9.469,9.469v54.337c0,5.23,4.24,9.469,9.469,9.469
					h127.179c5.23,0,9.469-4.239,9.469-9.469v-54.337C377.381,339.385,373.141,335.146,367.912,335.146z" data-index="107"></path>
				<g>
					
						<ellipse transform="matrix(0.2272 -0.9738 0.9738 0.2272 -157.5592 545.0132)" style="fill:#FFFFFF;" cx="264.629" cy="371.783" rx="26.007" ry="26.007"></ellipse>
					<path style="fill:#D8AE39;" d="M264.629,397.79c7.702,0,14.619-3.35,19.381-8.67c-1.528-7.535-7.332-13.51-14.777-15.288
						c3.792-1.746,6.43-5.569,6.43-10.017c0-6.094-4.94-11.033-11.033-11.033c-6.094,0-11.033,4.94-11.033,11.033
						c0,4.448,2.638,8.271,6.43,10.017c-7.445,1.777-13.249,7.753-14.777,15.288C250.01,394.44,256.927,397.79,264.629,397.79z" data-index="108"></path>
				</g>
				<g>
					<rect x="297.7" y="351.834" style="fill:#FFFFFF;" width="70.605" height="3.836"></rect>
					<rect x="297.7" y="360.346" style="fill:#FFFFFF;" width="70.605" height="3.836"></rect>
					<rect x="297.7" y="368.139" style="fill:#FFFFFF;" width="70.605" height="3.836"></rect>
					<rect x="297.7" y="376.249" style="fill:#FFFFFF;" width="70.605" height="3.836"></rect>
					<rect x="297.7" y="384.041" style="fill:#FFFFFF;" width="70.605" height="3.836"></rect>
				</g>
			</g>
			<g>
				<path style="fill: rgb(157, 190, 237); opacity: 1;" d="M310.033,177.842V83.891c0-5.869-4.758-10.627-10.628-10.627H251.93
					c-5.869,0-10.627,4.758-10.627,10.627v100.535c0,5.869,4.758,10.627,10.627,10.627h43.202l22.206,12.503L310.033,177.842z" data-index="109"></path>
				<g>
					<g>
						<rect x="251.279" y="107.555" style="fill:#FFFFFF;" width="48.025" height="3.836"></rect>
						<rect x="251.279" y="116.067" style="fill:#FFFFFF;" width="48.025" height="3.836"></rect>
						<rect x="251.279" y="123.859" style="fill:#FFFFFF;" width="48.025" height="3.836"></rect>
						<rect x="251.279" y="131.969" style="fill:#FFFFFF;" width="48.025" height="3.836"></rect>
						<rect x="251.279" y="139.762" style="fill:#FFFFFF;" width="48.025" height="3.836"></rect>
						<rect x="251.279" y="148.065" style="fill:#FFFFFF;" width="48.025" height="3.836"></rect>
						<rect x="251.279" y="156.577" style="fill:#FFFFFF;" width="48.025" height="3.836"></rect>
						<rect x="251.279" y="164.37" style="fill:#FFFFFF;" width="48.025" height="3.836"></rect>
						<rect x="251.279" y="172.48" style="fill:#FFFFFF;" width="48.025" height="3.836"></rect>
						<rect x="251.279" y="180.272" style="fill:#FFFFFF;" width="48.025" height="3.836"></rect>
					</g>
					<g>
						
							<ellipse transform="matrix(0.2308 -0.973 0.973 0.2308 113.3118 324.2252)" style="fill:#FFFFFF;" cx="261.717" cy="90.447" rx="10.438" ry="10.438"></ellipse>
						<path style="fill:#60D89E;" d="M263.716,81.113c0,0-3.705,4.205-2.703,9.302c-1.629-1.514-3.813-2.664-6.694-2.664
							c0,0,0.9,10.078,10.918,9.898c0,0-0.251-1.003-0.862-2.369C265.464,93.271,268.646,86.311,263.716,81.113z" data-index="110"></path>
					</g>
					<text transform="matrix(1 0 0 1 273.7861 100.4463)" style="fill:#FFFFFF; font-family:'Dosis-Medium'; font-size:19.0046px;">.....?</text>
				</g>
			</g>
		</g>
		<g>
			<polygon style="fill:#F7CE45;" points="321.801,44.529 324.79,50.584 331.473,51.556 326.637,56.269 327.778,62.925 
				321.801,59.782 315.824,62.925 316.966,56.269 312.13,51.556 318.813,50.584 			"></polygon>
			<polygon style="fill:#F7CE45;" points="345.696,44.529 348.684,50.584 355.367,51.556 350.532,56.269 351.673,62.925 
				345.696,59.782 339.719,62.925 340.86,56.269 336.025,51.556 342.707,50.584 			"></polygon>
			<polygon style="fill:#F7CE45;" points="371.238,44.529 374.227,50.584 380.91,51.556 376.074,56.269 377.216,62.925 
				371.238,59.782 365.261,62.925 366.403,56.269 361.567,51.556 368.25,50.584 			"></polygon>
			<polygon style="fill:#F7CE45;" points="395.133,44.529 398.122,50.584 404.804,51.556 399.969,56.269 401.11,62.925 
				395.133,59.782 389.156,62.925 390.297,56.269 385.462,51.556 392.145,50.584 			"></polygon>
			<polygon style="fill:#FFFFFF;" points="417.828,44.529 420.816,50.584 427.499,51.556 422.663,56.269 423.805,62.925 
				417.828,59.782 411.851,62.925 412.992,56.269 408.157,51.556 414.839,50.584 			"></polygon>
		</g>
	</g>
</g>
</svg>